<svg xmlns="http://www.w3.org/2000/svg" viewBox="0 0 800 193.1"><defs><style>.cls-1{fill:#004359;}.cls-2{fill:#489fdf;}</style></defs><title>cloud7 logo new</title><g id="Layer_2" data-name="Layer 2"><g id="concept_1" data-name="concept 1"><g id="cloud7_logo_new" data-name="cloud7 logo new"><g id="logo"><path className="cls-1" d="M310.47,90c-1.24-6.32-6-11.34-13.94-11.34-9.43,0-15.64,7.84-15.64,20.6,0,13,6.27,20.61,15.75,20.61,7.51,0,12.42-4.12,13.83-11h11.75c-1.3,12.64-11.41,21.22-25.69,21.22-17,0-28.06-11.62-28.06-30.82,0-18.85,11.07-30.76,27.95-30.76,15.3,0,24.61,9.82,25.68,21.5Z"/><path className="cls-1" d="M330.15,47.51h12.19V129H330.15Z"/><path className="cls-1" d="M351.06,99.27c0-19.08,11.24-30.76,28.17-30.76S407.4,80.19,407.4,99.27s-11.18,30.82-28.17,30.82S351.06,118.41,351.06,99.27Zm43.92,0c0-13.15-6.21-20.72-15.75-20.72s-15.75,7.57-15.75,20.72,6.21,20.78,15.75,20.78S395,112.48,395,99.27Z"/><path className="cls-1" d="M466.59,129H454.91v-10h-.29C451.35,126,445.31,130,436.22,130c-12.93,0-20.83-8.41-20.83-22V69.58h12.19v36.07c0,9,4.3,13.89,12.71,13.89,8.8,0,14.11-6.1,14.11-15.36V69.58h12.19Z"/><path className="cls-1" d="M474.81,99.27c0-18.74,9.93-30.65,24.84-30.65,8.52,0,15.29,4.29,18.62,10.84h.23V47.51h12.25V129H518.9V118.86h-.23c-3.5,6.77-10.27,11.12-18.91,11.12C484.74,130,474.81,118,474.81,99.27Zm12.47,0c0,12.53,6,20.38,15.7,20.38,9.37,0,15.63-8,15.63-20.38S512.35,78.89,503,78.89C493.32,78.89,487.28,86.8,487.28,99.27Z"/><path className="cls-1" d="M561.15,69.35c12,0,20,7,21.11,17.9H578c-1.19-8.75-7.51-14.11-16.88-14.11-9.09,0-15.69,5-15.69,12,0,5.7,3.89,9,13.32,11.18L567,98.2c11.69,2.77,16.26,7.17,16.26,15.3,0,9.59-8.92,16.37-21.39,16.37s-21.68-7.17-22.58-17.61h4.34c1.08,8.29,8.36,13.83,18.18,13.83,10.05,0,17.05-5.08,17.05-12.31,0-6.27-3.67-9.54-13.15-11.8l-8.19-1.86c-11.23-2.6-16.31-7.17-16.31-14.85C541.17,76,549.47,69.35,561.15,69.35Z"/><path className="cls-1" d="M639,112.54c-2,9.93-10.9,17.33-24,17.33-16,0-26.19-11.24-26.19-30.2,0-18.24,10.22-30.32,25.74-30.32,15.19,0,25.18,11.46,25.18,28.51v2.48H593.3v.23c0,16,8.64,25.4,21.79,25.4,10.78,0,17.78-5.75,19.53-13.43ZM593.36,96.68h41.88c0-13.89-8.35-23.43-20.71-23.43C602.33,73.25,594,82.68,593.36,96.68Z"/><path className="cls-1" d="M669.82,129h-5.25L642.44,70.26h4.69l20,54.3h.17l20-54.3h4.63Z"/><path className="cls-1" d="M744.42,112.54c-2,9.93-10.89,17.33-24,17.33-16,0-26.19-11.24-26.19-30.2,0-18.24,10.22-30.32,25.74-30.32,15.18,0,25.18,11.46,25.18,28.51v2.48H698.7v.23c0,16,8.63,25.4,21.79,25.4,10.78,0,17.78-5.75,19.53-13.43ZM698.75,96.68h41.89c-.06-13.89-8.35-23.43-20.72-23.43C707.73,73.25,699.37,82.68,698.75,96.68Z"/><path className="cls-1" d="M754,70.26h4.12V83h.12c2.65-8.07,10.33-13.66,20.32-13.66,12.93,0,21.45,8.36,21.45,21.57V129h-4.4V91.48c0-11.34-7.17-18.18-18.07-18.18-11.34,0-19.13,8.42-19.13,20.61V129H754Z"/><path id="cloud7" className="cls-2" d="M208.14,57a50.62,50.62,0,0,0,.26-5.1,51.92,51.92,0,0,0-97-25.82,43,43,0,0,0-68.1,29.67H43a43,43,0,0,0,0,86.05h69.41L139.24,84v-.55H81.37V61.57h85V83.72l-25.94,58.09h0L117.55,193.1h28.89l22.15-51.29H197.2v0l.64,0A43,43,0,0,0,208.14,57Z"/></g></g></g></g></svg>