<svg width="9772.44" height="2931.02" viewBox="74.428 1369.14 9772.44 2931.02" xmlns="http://www.w3.org/2000/svg" xmlns:xlink="http://www.w3.org/1999/xlink" overflow="hidden"><path d="M1539.93 1369.15C730.572 1369.15 74.428 2025.27 74.428 2834.63 74.428 3644.07 730.572 4300.16 1539.93 4300.16 2349.32 4300.16 3005.43 3644.07 3005.43 2834.63 3005.43 2025.32 2349.35 1369.21 1539.91 1369.21L1539.93 1369.15ZM2212 3482.79C2185.68 3525.96 2129.43 3539.49 2086.4 3513.19 1742.26 3302.86 1309.1 3255.34 798.978 3371.88 749.821 3383.15 700.821 3352.33 689.622 3303.19 678.369 3254.03 709.046 3205.03 758.326 3193.83 1316.57 3066.2 1795.43 3121.14 2181.7 3357.18 2224.75 3383.6 2238.4 3439.78 2211.98 3482.83L2212 3482.79ZM2391.37 3083.81C2358.23 3137.59 2287.91 3154.46 2234.2 3121.43 1840.37 2879.34 1239.82 2809.22 773.884 2950.65 713.456 2968.91 649.634 2934.85 631.294 2874.53 613.094 2814.1 647.167 2750.4 707.489 2732.02 1239.72 2570.54 1901.35 2648.76 2353.73 2926.75 2407.45 2959.82 2424.43 3030.17 2391.35 3083.83L2391.37 3083.81ZM2406.77 2668.29C1934.38 2387.75 1155.17 2361.95 704.215 2498.82 631.801 2520.78 555.221 2479.9 533.276 2407.49 511.331 2335.04 552.176 2258.51 624.643 2236.5 1142.31 2079.35 2002.87 2109.71 2546.67 2432.53 2611.8 2471.19 2633.17 2555.31 2594.56 2620.36 2556.06 2685.49 2471.71 2706.96 2406.79 2668.29L2406.77 2668.29ZM4061.57 2722.05C3808.54 2661.71 3763.49 2619.36 3763.49 2530.37 3763.49 2446.3 3842.64 2389.73 3960.35 2389.73 4074.45 2389.73 4187.58 2432.69 4306.2 2521.13 4309.79 2523.81 4314.29 2524.88 4318.71 2524.18 4323.14 2523.51 4327.06 2521.08 4329.65 2517.42L4453.2 2343.26C4458.28 2336.09 4456.89 2326.2 4450.05 2320.72 4308.88 2207.45 4149.91 2152.37 3964.09 2152.37 3690.89 2152.37 3500.05 2316.33 3500.05 2550.92 3500.05 2802.48 3664.67 2891.55 3949.15 2960.31 4191.28 3016.08 4232.14 3062.81 4232.14 3146.34 4232.14 3238.89 4149.51 3296.43 4016.52 3296.43 3868.83 3296.43 3748.36 3246.68 3613.59 3129.97 3610.25 3127.09 3605.66 3125.77 3601.43 3126.02 3596.96 3126.39 3592.89 3128.45 3590.05 3131.86L3451.52 3296.73C3445.71 3303.57 3446.45 3313.79 3453.17 3319.71 3609.97 3459.69 3802.81 3533.63 4010.93 3533.63 4305.33 3533.63 4495.57 3372.77 4495.57 3123.8 4496.1 2913.62 4370.27 2797.25 4062.1 2722.28L4061.57 2722.05ZM5161.62 2472.5C5034.01 2472.5 4929.34 2522.76 4843.03 2625.75L4843.03 2509.83C4843.03 2500.68 4835.61 2493.22 4826.48 2493.22L4599.9 2493.22C4590.75 2493.22 4583.35 2500.68 4583.35 2509.83L4583.35 3797.86C4583.35 3807.01 4590.75 3814.47 4599.9 3814.47L4826.48 3814.47C4835.61 3814.47 4843.03 3807.01 4843.03 3797.86L4843.03 3391.28C4929.36 3488.16 5034.04 3535.5 5161.62 3535.5 5398.72 3535.5 5638.75 3352.98 5638.75 3004.06 5639.1 2655.06 5399 2472.48 5161.88 2472.48L5161.62 2472.5ZM5375.29 3004.06C5375.29 3181.74 5265.85 3305.73 5109.13 3305.73 4954.21 3305.73 4837.34 3176.1 4837.34 3004.06 4837.34 2832.04 4954.21 2702.4 5109.13 2702.4 5263.31 2702.38 5375.31 2829.22 5375.31 3004.04L5375.29 3004.06ZM6253.97 2472.5C5948.61 2472.5 5709.38 2707.63 5709.38 3007.86 5709.38 3304.82 5946.96 3537.48 6250.22 3537.48 6556.66 3537.48 6796.62 3303.14 6796.62 3004.06 6796.62 2706.02 6558.27 2472.53 6253.95 2472.53L6253.97 2472.5ZM6253.97 3307.49C6091.55 3307.49 5969.1 3177 5969.1 3003.97 5969.1 2830.22 6087.31 2704.13 6250.22 2704.13 6413.69 2704.13 6536.96 2834.63 6536.96 3007.77 6536.96 3181.49 6417.96 3307.49 6253.98 3307.49L6253.97 3307.49ZM7448.69 2493.22 7199.37 2493.22 7199.37 2238.32C7199.37 2229.18 7191.98 2221.73 7182.83 2221.73L6956.29 2221.73C6947.12 2221.73 6939.69 2229.18 6939.69 2238.32L6939.69 2493.22 6830.75 2493.22C6821.63 2493.22 6814.24 2500.68 6814.24 2509.83L6814.24 2704.55C6814.24 2713.69 6821.63 2721.16 6830.75 2721.16L6939.69 2721.16 6939.69 3225C6939.69 3428.61 7041.03 3531.84 7240.89 3531.84 7322.17 3531.84 7389.59 3515.06 7453.13 3479.03 7458.3 3476.14 7461.5 3470.58 7461.5 3464.66L7461.5 3279.23C7461.5 3273.51 7458.52 3268.1 7453.62 3265.11 7448.69 3262.01 7442.55 3261.85 7437.49 3264.36 7393.84 3286.32 7351.65 3296.45 7304.49 3296.45 7231.79 3296.45 7199.37 3263.45 7199.37 3189.48L7199.37 2721.25 7448.69 2721.25C7457.84 2721.25 7465.21 2713.79 7465.21 2704.64L7465.21 2509.93C7465.56 2500.78 7458.21 2493.33 7448.93 2493.33L7448.69 2493.22ZM8317.39 2494.22 8317.39 2462.91C8317.39 2370.81 8352.7 2329.74 8431.91 2329.74 8479.14 2329.74 8517.08 2339.11 8559.57 2353.29 8564.8 2354.94 8570.26 2354.11 8574.51 2350.98 8578.89 2347.85 8581.36 2342.82 8581.36 2337.5L8581.36 2146.58C8581.36 2139.28 8576.67 2132.82 8569.63 2130.67 8524.74 2117.32 8467.31 2103.62 8381.32 2103.62 8172.05 2103.62 8061.43 2221.46 8061.43 2444.29L8061.43 2492.24 7952.58 2492.24C7943.45 2492.24 7935.96 2499.69 7935.96 2508.83L7935.96 2704.55C7935.96 2713.68 7943.45 2721.16 7952.58 2721.16L8061.43 2721.16 8061.43 3498.31C8061.43 3507.46 8068.82 3514.92 8077.95 3514.92L8304.53 3514.92C8313.68 3514.92 8321.13 3507.46 8321.13 3498.31L8321.13 2721.21 8532.67 2721.21 8856.72 3498.17C8819.93 3579.81 8783.76 3596.05 8734.38 3596.05 8694.46 3596.05 8652.42 3584.13 8609.44 3560.61 8605.4 3558.39 8600.61 3558.02 8596.25 3559.37 8591.93 3560.89 8588.29 3564.11 8586.45 3568.31L8509.66 3736.78C8506 3744.75 8509.13 3754.09 8516.8 3758.22 8596.97 3801.64 8669.33 3820.17 8758.77 3820.17 8926.07 3820.17 9018.54 3742.25 9100.06 3532.59L9493.12 2516.9C9495.1 2511.79 9494.51 2506.01 9491.37 2501.48 9488.26 2496.98 9483.24 2494.27 9477.74 2494.27L9241.88 2494.27C9234.81 2494.27 9228.49 2498.77 9226.18 2505.4L8984.56 3195.56 8719.91 2504.95C8717.49 2498.52 8711.3 2494.27 8704.44 2494.27L8317.34 2494.27 8317.39 2494.22ZM7813.74 2493.22 7587.17 2493.22C7578.01 2493.22 7570.56 2500.68 7570.56 2509.83L7570.56 3498.31C7570.56 3507.47 7578.01 3514.92 7587.17 3514.92L7813.74 3514.92C7822.87 3514.92 7830.35 3507.47 7830.35 3498.31L7830.35 2509.9C7830.37 2500.75 7822.96 2493.31 7813.81 2493.29 7813.78 2493.29 7813.75 2493.29 7813.72 2493.29L7813.74 2493.22ZM7701.74 2043.14C7611.98 2043.14 7539.15 2115.8 7539.15 2205.56 7539.15 2295.37 7612 2368.11 7701.74 2368.11 7791.46 2368.11 7864.23 2295.37 7864.23 2205.56 7864.23 2115.82 7791.43 2043.14 7701.83 2043.14L7701.74 2043.14ZM9686.58 2811.04C9596.92 2811.04 9527.14 2739.02 9527.14 2651.58 9527.14 2564.13 9597.83 2491.29 9687.42 2491.29 9777.1 2491.29 9846.87 2563.29 9846.87 2650.67 9846.87 2738.11 9776.17 2811.04 9686.57 2811.04L9686.58 2811.04ZM9687.46 2507.15C9605.79 2507.15 9544 2572.07 9544 2651.58 9544 2731.04 9605.35 2795.09 9686.64 2795.09 9768.29 2795.09 9830.16 2730.22 9830.16 2650.67 9830.16 2571.2 9768.73 2507.15 9687.53 2507.15L9687.46 2507.15ZM9722.81 2667.06 9767.91 2730.21 9729.88 2730.21 9689.28 2672.28 9654.37 2672.28 9654.37 2730.21 9622.54 2730.21 9622.54 2562.83 9697.18 2562.83C9736.06 2562.83 9761.63 2582.73 9761.63 2616.23 9761.8 2643.67 9745.88 2660.43 9722.95 2667.06L9722.81 2667.06ZM9695.86 2591.55 9654.35 2591.55 9654.35 2644.49 9695.86 2644.49C9716.58 2644.49 9728.95 2634.36 9728.95 2618 9728.95 2600.78 9716.53 2591.55 9695.88 2591.55L9695.86 2591.55Z" fill="#2EBD59"/></svg>